<svg width="18" height="18" viewBox="0 0 18 18" fill="none" xmlns="http://www.w3.org/2000/svg">
<path fill-rule="evenodd" clip-rule="evenodd" d="M9 0C10.78 0 12.5201 0.527841 14.0001 1.51677C15.4802 2.50571 16.6337 3.91131 17.3149 5.55585C17.9961 7.20038 18.1743 9.00998 17.8271 10.7558C17.4798 12.5016 16.6226 14.1053 15.364 15.364C14.1053 16.6226 12.5016 17.4798 10.7558 17.8271C9.00998 18.1743 7.20038 17.9961 5.55585 17.3149C3.91131 16.6337 2.50571 15.4802 1.51677 14.0001C0.527841 12.5201 0 10.78 0 9C0.0011924 6.61342 0.949787 4.32492 2.63736 2.63736C4.32492 0.949787 6.61342 0.0011924 9 0V0ZM6.186 14.058V7.02975H3.84975V14.058H6.186ZM14.61 14.058V10.0275C14.61 7.86825 13.4572 6.864 11.9205 6.864C11.497 6.84681 11.0769 6.94593 10.7058 7.1506C10.3347 7.35527 10.0267 7.65768 9.81525 8.025V7.02975H7.479C7.50975 7.689 7.479 14.058 7.479 14.058H9.81525V10.1325C9.80556 9.93953 9.83097 9.7464 9.89025 9.5625C9.97731 9.31345 10.1395 9.09755 10.3544 8.94455C10.5693 8.79155 10.8264 8.70899 11.0902 8.70825C11.9355 8.70825 12.2737 9.35325 12.2737 10.2975V14.058H14.61ZM5.034 3.6405C4.8668 3.62535 4.69827 3.64492 4.53899 3.698C4.37971 3.75108 4.23313 3.83651 4.10844 3.94893C3.98375 4.06136 3.88365 4.19835 3.81443 4.3513C3.7452 4.50425 3.70834 4.66986 3.70616 4.83773C3.70399 5.0056 3.73654 5.17211 3.80177 5.32681C3.86701 5.4815 3.96352 5.62104 4.08525 5.73666C4.20698 5.85228 4.3513 5.94149 4.50915 5.99868C4.667 6.05587 4.83496 6.07981 5.0025 6.069H5.0175C5.18451 6.0825 5.35251 6.0614 5.51099 6.00701C5.66948 5.95262 5.81503 5.86612 5.93856 5.75291C6.06209 5.63971 6.16093 5.50223 6.22891 5.34908C6.29688 5.19593 6.33253 5.03041 6.33361 4.86286C6.3347 4.6953 6.3012 4.52933 6.23522 4.37531C6.16924 4.2213 6.07219 4.08255 5.95014 3.96775C5.82809 3.85295 5.68366 3.76457 5.5259 3.70813C5.36813 3.6517 5.20042 3.62842 5.03325 3.63975L5.034 3.6405Z" fill="#0077B5"/>
</svg>
