<svg width="18" height="18" viewBox="0 0 18 18" fill="none" xmlns="http://www.w3.org/2000/svg">
<circle cx="9" cy="9" r="9" fill="#DB4437"/>
<g clip-path="url(#clip0_166_795)">
<path d="M15 12.1489C14.88 12.4326 14.88 12.4326 14.7 12.2056C13.56 11.1844 12.48 10.1064 11.34 9.08507C11.22 8.9716 11.22 8.9716 11.34 8.85812C12.48 7.78011 13.62 6.7021 14.76 5.62408C14.88 5.56734 14.88 5.56734 14.94 5.73756C14.94 5.7943 14.94 5.7943 15 5.85103C15 7.95032 15 10.0496 15 12.1489Z" fill="white"/>
<path d="M9 5C10.62 5 12.24 5 13.86 5C13.98 5 14.16 5 14.28 5.05674C14.34 5.05674 14.34 5.11348 14.28 5.17021L14.22 5.22695C12.72 6.64539 11.22 8.00709 9.78 9.42553C9.36 9.82269 8.88 9.87943 8.4 9.65248C8.34 9.59574 8.28 9.48227 8.16 9.42553C7.26 8.51773 6.3 7.66667 5.4 6.75886C4.8 6.24823 4.26 5.73759 3.72 5.22695C3.6 5.11348 3.6 5.11348 3.72 5.05674C3.84 5 3.96 5 4.14 5C5.76 5 7.38 5 9 5Z" fill="white"/>
<path d="M9 13C7.38 13 5.76 13 4.14 13C4.02 13 3.9 13 3.78 12.9433C3.6 12.8865 3.6 12.8865 3.72 12.7731C4.08 12.4326 4.44 12.0922 4.8 11.8085C5.58 11.0709 6.42 10.3334 7.2 9.53902C7.32 9.42555 7.32 9.42555 7.44 9.53902C7.62 9.70924 7.8 9.93619 8.04 10.1064C8.7 10.5603 9.66 10.5036 10.26 9.99293C10.44 9.82271 10.56 9.70924 10.74 9.53902C10.8 9.48229 10.86 9.48229 10.92 9.53902C11.22 9.87945 11.58 10.1631 11.94 10.5036C12.78 11.2979 13.56 12.0355 14.4 12.8298C14.52 12.9433 14.52 12.9433 14.34 13C14.22 13.0568 14.1 13.0568 13.98 13.0568C12.24 13 10.62 13 9 13Z" fill="white"/>
<path d="M3 8.97164C3 8.0071 3 6.98582 3 6.02128C3 5.90781 3 5.79433 3.06 5.68086C3.12 5.56738 3.12 5.56738 3.18 5.62412C3.36 5.79433 3.48 5.90781 3.6 6.02128C4.62 6.98582 5.64 7.95036 6.66 8.85816C6.78 8.97164 6.78 8.97164 6.66 9.08511C5.52 10.1631 4.38 11.2411 3.24 12.3192C3.12 12.4326 3.12 12.4326 3.06 12.2624C3 12.1489 3 12.0355 3 11.922C3 10.9575 3 9.99292 3 8.97164Z" fill="white"/>
</g>
<defs>
<clipPath id="clip0_166_795">
<rect width="12" height="8" fill="white" transform="translate(3 5)"/>
</clipPath>
</defs>
</svg>
