<svg width="19" height="18" viewBox="0 0 19 18" fill="none" xmlns="http://www.w3.org/2000/svg">
<path d="M18.043 8.30334C18.043 8.78817 18.043 9.273 18.043 9.75783C17.9738 10.1734 17.9738 10.589 17.8352 11.0045C16.9348 14.4676 14.857 16.684 11.4632 17.7229C10.9091 17.8615 10.355 17.9307 9.80087 18C9.31604 18 8.8312 18 8.34637 18H8.27711C7.30745 17.9307 6.33778 17.6537 5.43738 17.2381C2.18207 15.7143 0.381267 13.1517 0.0349584 9.55005C-0.103565 8.09555 0.173482 6.71032 0.796838 5.39434C2.45912 1.51568 6.75335 -0.700694 10.9091 0.199709C14.4414 0.961588 16.727 3.17797 17.766 6.64105C17.9045 7.12589 17.9738 7.67998 18.043 8.30334ZM4.32919 6.71032C4.32919 6.98736 4.39845 7.26441 4.46771 7.54146C4.88328 8.64965 5.43738 9.61931 6.19926 10.5197C7.44597 11.9049 8.90047 13.0131 10.7013 13.5672C11.3246 13.775 11.948 13.7058 12.5713 13.4287C12.9176 13.2209 13.1947 12.9439 13.541 12.5976C13.7488 12.3898 13.7488 12.182 13.541 11.9742C13.0562 11.4201 12.5021 10.9353 12.0172 10.4505C11.8095 10.2427 11.6017 10.2427 11.3939 10.4505C11.1168 10.7275 10.8398 11.0045 10.5627 11.2816C10.2164 11.6279 9.80087 11.6972 9.3853 11.3509C8.34637 10.6582 7.51523 9.75783 6.75335 8.78817C6.40704 8.3726 6.4763 7.95703 6.82261 7.61072C7.09966 7.33367 7.44597 7.05662 7.72302 6.71032C7.9308 6.50253 7.9308 6.29474 7.72302 6.15622C7.23818 5.53286 6.68409 4.97877 6.13 4.49394C5.92221 4.28615 5.71442 4.28615 5.5759 4.49394C5.36812 4.63246 5.16033 4.84025 4.95254 5.04803C4.53697 5.53287 4.32919 6.08696 4.32919 6.71032Z" fill="#12A432"/>
</svg>
