<svg width="13" height="13" viewBox="0 0 13 13" fill="none" xmlns="http://www.w3.org/2000/svg">
<path fill-rule="evenodd" clip-rule="evenodd" d="M1.89584 5.58883C1.89584 3.09723 3.97795 1.08337 6.49646 1.08337C9.02208 1.08337 11.1042 3.09723 11.1042 5.58883C11.1042 6.84437 10.6476 8.01001 9.89599 8.99798C9.06686 10.0878 8.04493 11.0373 6.89464 11.7826C6.63137 11.9549 6.39378 11.9678 6.10484 11.7826C4.94799 11.0373 3.92606 10.0878 3.10403 8.99798C2.35192 8.01001 1.89584 6.84437 1.89584 5.58883ZM4.98022 5.7291C4.98022 6.56379 5.66132 7.22027 6.49646 7.22027C7.33214 7.22027 8.0198 6.56379 8.0198 5.7291C8.0198 4.90092 7.33214 4.21248 6.49646 4.21248C5.66132 4.21248 4.98022 4.90092 4.98022 5.7291Z" fill="#ADADAD"/>
</svg>
