<svg width="24" height="57" viewBox="0 0 24 57" fill="none" xmlns="http://www.w3.org/2000/svg">
<path d="M19.8445 26.4332H19.2001V26.4H12V29.6H16.5213C15.8617 31.4628 14.0892 32.8001 12 32.8001C9.34922 32.8001 7.20001 30.6508 7.20001 28C7.20001 25.3492 9.34922 23.2 12 23.2C13.2236 23.2 14.3368 23.6616 15.1844 24.4156L17.4473 22.1528C16.0185 20.8212 14.1072 20 12 20C7.58202 20 4 23.582 4 28C4 32.4181 7.58202 36.0001 12 36.0001C16.4181 36.0001 20.0001 32.4181 20.0001 28C20.0001 27.4636 19.9449 26.94 19.8445 26.4332Z" fill="#FFC107"/>
<path d="M4.92184 24.2764L7.55026 26.204C8.26146 24.4432 9.98387 23.2 11.9995 23.2C13.2231 23.2 14.3363 23.6616 15.1839 24.4156L17.4467 22.1528C16.0179 20.8212 14.1067 20 11.9995 20C8.92666 20 6.26185 21.7348 4.92184 24.2764Z" fill="#FF3D00"/>
<path d="M12.0001 36.0003C14.0665 36.0003 15.9441 35.2094 17.3637 33.9234L14.8877 31.8282C14.0845 32.4366 13.0861 32.8002 12.0001 32.8002C9.9193 32.8002 8.1525 31.4734 7.48689 29.6218L4.87808 31.6318C6.20209 34.2226 8.8909 36.0003 12.0001 36.0003Z" fill="#4CAF50"/>
<path d="M19.8444 26.4333H19.2V26.4001H12V29.6002H16.5212C16.2044 30.495 15.6288 31.2666 14.8864 31.8286C14.8868 31.8282 14.8872 31.8282 14.8876 31.8278L17.3636 33.923C17.1884 34.0822 20 32.0002 20 28.0002C20 27.4638 19.9448 26.9401 19.8444 26.4333Z" fill="#1976D2"/>
</svg>
