<svg width="18" height="18" viewBox="0 0 18 18" fill="none" xmlns="http://www.w3.org/2000/svg">
<path fill-rule="evenodd" clip-rule="evenodd" d="M9 0C10.78 0 12.5201 0.527841 14.0001 1.51677C15.4802 2.50571 16.6337 3.91131 17.3149 5.55585C17.9961 7.20038 18.1743 9.00998 17.8271 10.7558C17.4798 12.5016 16.6226 14.1053 15.364 15.364C14.1053 16.6226 12.5016 17.4798 10.7558 17.8271C9.00998 18.1743 7.20038 17.9961 5.55585 17.3149C3.91131 16.6337 2.50571 15.4802 1.51677 14.0001C0.527841 12.5201 0 10.78 0 9C0.0011924 6.61342 0.949787 4.32492 2.63736 2.63736C4.32492 0.949787 6.61342 0.0011924 9 0ZM7.4145 13.7865C8.225 13.7921 9.02854 13.6366 9.77843 13.329C10.5283 13.0214 11.2096 12.5679 11.7828 11.9948C12.356 11.4217 12.8096 10.7405 13.1172 9.99063C13.4249 9.24077 13.5805 8.43725 13.575 7.62675C13.575 7.53225 13.575 7.4385 13.5705 7.3485C13.9949 7.04043 14.3613 6.65953 14.6527 6.2235C14.2573 6.39779 13.8383 6.51278 13.4092 6.56475C13.8622 6.29417 14.2007 5.86741 14.361 5.36475C13.9358 5.61586 13.4713 5.79336 12.987 5.88975C12.6898 5.57335 12.3044 5.35355 11.8808 5.25886C11.4571 5.16416 11.0148 5.19893 10.6112 5.35867C10.2076 5.51841 9.86124 5.79574 9.61715 6.15469C9.37305 6.51365 9.24244 6.93766 9.24225 7.37175C9.24099 7.53805 9.26065 7.70385 9.30075 7.86525C8.43994 7.82294 7.59768 7.59994 6.82871 7.21074C6.05975 6.82154 5.38131 6.27487 4.8375 5.60625C4.5614 6.08294 4.47751 6.64698 4.60293 7.18339C4.72836 7.71979 5.05366 8.18816 5.5125 8.493C5.1693 8.48356 4.83349 8.39118 4.53375 8.22375V8.25C4.53361 8.75009 4.70641 9.23485 5.02285 9.62209C5.33929 10.0093 5.7799 10.2752 6.27 10.3747C6.08419 10.425 5.89249 10.4503 5.7 10.4497C5.56274 10.4499 5.42581 10.4363 5.29125 10.4092C5.42865 10.8396 5.69744 11.2161 6.05984 11.4858C6.42225 11.7555 6.86006 11.9049 7.31175 11.913C6.54419 12.5139 5.59704 12.8396 4.62225 12.8377C4.44975 12.8386 4.27737 12.828 4.10625 12.8062C5.09041 13.4478 6.24048 13.7879 7.41525 13.785L7.4145 13.7865Z" fill="#1DA1F2"/>
</svg>
