<svg width="19" height="18" viewBox="0 0 19 18" fill="none" xmlns="http://www.w3.org/2000/svg">
<path fill-rule="evenodd" clip-rule="evenodd" d="M7.64069 18C5.38983 17.6439 3.35596 16.4523 1.94489 14.6629C0.533815 12.8735 -0.150719 10.6178 0.0278658 8.34596C0.20645 6.07412 1.23502 3.95312 2.90836 2.40616C4.5817 0.859195 6.77678 0 9.05563 0C11.3345 0 13.5296 0.859195 15.2029 2.40616C16.8762 3.95312 17.9048 6.07412 18.0834 8.34596C18.262 10.6178 17.5774 12.8735 16.1664 14.6629C14.7553 16.4523 12.7214 17.6439 10.4706 18V11.6339H12.5835L12.9767 9.01608H10.4676V7.3174C10.45 7.12186 10.4766 6.92488 10.5455 6.74105C10.6144 6.55721 10.7238 6.39124 10.8656 6.25542C11.0073 6.1196 11.1778 6.01743 11.3645 5.95646C11.5511 5.89549 11.749 5.87729 11.9436 5.90321H13.0854V3.67478C12.4149 3.56657 11.7375 3.50755 11.0584 3.49819C8.98998 3.49819 7.63767 4.75164 7.63767 7.02158V9.01608H5.3383V11.6339H7.63767L7.64069 18Z" fill="#4267B2"/>
</svg>
